<?xml version="1.0" encoding="UTF-8"?>
<svg width="16px" height="16px" viewBox="0 0 16 16" version="1.1" xmlns="http://www.w3.org/2000/svg" xmlns:xlink="http://www.w3.org/1999/xlink">
    <title>akar-icons:instagram-fill</title>
    <g id="Welcome" stroke="none" stroke-width="1" fill="none" fill-rule="evenodd">
        <g id="Desktop-HD-Copy-4" transform="translate(-1391.000000, -28.000000)">
            <g id="Menu" transform="translate(28.000000, 12.000000)">
                <g id="akar-icons:instagram-fill" transform="translate(1363.000000, 16.000000)">
                    <rect id="ViewBox" x="0" y="0" width="16" height="16"></rect>
                    <g id="Group" transform="translate(1.000000, 1.000000)" fill="#000000">
                        <path d="M4.40795455,0.045 C5.20772727,0.00818181818 5.46272727,0 7.5,0 C9.53727273,0 9.79227273,0.00886363636 10.5913636,0.045 C11.3904545,0.0811363636 11.9359091,0.208636364 12.4131818,0.393409091 C12.9129545,0.582272727 13.3663636,0.8775 13.7413636,1.25931818 C14.1231818,1.63363636 14.4177273,2.08636364 14.6059091,2.58681818 C14.7913636,3.06409091 14.9181818,3.60954545 14.955,4.40727273 C14.9918182,5.20840909 15,5.46340909 15,7.5 C15,9.53727273 14.9911364,9.79227273 14.955,10.5920455 C14.9188636,11.3897727 14.7913636,11.9352273 14.6059091,12.4125 C14.4177216,12.9130187 14.1226912,13.3665 13.7413636,13.7413636 C13.3663636,14.1231818 12.9129545,14.4177273 12.4131818,14.6059091 C11.9359091,14.7913636 11.3904545,14.9181818 10.5927273,14.955 C9.79227273,14.9918182 9.53727273,15 7.5,15 C5.46272727,15 5.20772727,14.9911364 4.40795455,14.955 C3.61022727,14.9188636 3.06477273,14.7913636 2.5875,14.6059091 C2.08699127,14.417702 1.63351393,14.1226742 1.25863636,13.7413636 C0.877077238,13.3668204 0.581805477,12.9135585 0.393409091,12.4131818 C0.208636364,11.9359091 0.0818181818,11.3904545 0.045,10.5927273 C0.00818181818,9.79159091 0,9.53659091 0,7.5 C0,5.46272727 0.00886363636,5.20772727 0.045,4.40863636 C0.0811363636,3.60954545 0.208636364,3.06409091 0.393409091,2.58681818 C0.582083715,2.08641915 0.877581032,1.63316815 1.25931818,1.25863636 C1.63366395,0.87715991 2.08668543,0.581893213 2.58681818,0.393409091 C3.06409091,0.208636364 3.60954545,0.0818181818 4.40727273,0.045 L4.40795455,0.045 Z M10.5306818,1.395 C9.73977273,1.35886364 9.5025,1.35136364 7.5,1.35136364 C5.4975,1.35136364 5.26022727,1.35886364 4.46931818,1.395 C3.73772727,1.42840909 3.34090909,1.55045455 3.07636364,1.65340909 C2.72659091,1.78977273 2.47636364,1.95136364 2.21386364,2.21386364 C1.96503058,2.4559442 1.77353204,2.75064694 1.65340909,3.07636364 C1.55045455,3.34090909 1.42840909,3.73772727 1.395,4.46931818 C1.35886364,5.26022727 1.35136364,5.4975 1.35136364,7.5 C1.35136364,9.5025 1.35886364,9.73977273 1.395,10.5306818 C1.42840909,11.2622727 1.55045455,11.6590909 1.65340909,11.9236364 C1.77340909,12.2488636 1.965,12.5440909 2.21386364,12.7861364 C2.45590909,13.035 2.75113636,13.2265909 3.07636364,13.3465909 C3.34090909,13.4495455 3.73772727,13.5715909 4.46931818,13.605 C5.26022727,13.6411364 5.49681818,13.6486364 7.5,13.6486364 C9.50318182,13.6486364 9.73977273,13.6411364 10.5306818,13.605 C11.2622727,13.5715909 11.6590909,13.4495455 11.9236364,13.3465909 C12.2734091,13.2102273 12.5236364,13.0486364 12.7861364,12.7861364 C13.035,12.5440909 13.2265909,12.2488636 13.3465909,11.9236364 C13.4495455,11.6590909 13.5715909,11.2622727 13.605,10.5306818 C13.6411364,9.73977273 13.6486364,9.5025 13.6486364,7.5 C13.6486364,5.4975 13.6411364,5.26022727 13.605,4.46931818 C13.5715909,3.73772727 13.4495455,3.34090909 13.3465909,3.07636364 C13.2102273,2.72659091 13.0486364,2.47636364 12.7861364,2.21386364 C12.5440411,1.9650485 12.2493427,1.77355278 11.9236364,1.65340909 C11.6590909,1.55045455 11.2622727,1.42840909 10.5306818,1.395 Z M6.54204545,9.81204545 C7.64533746,10.2713147 8.91939474,9.88607721 9.58336998,8.89243825 C10.2473452,7.8987993 10.1157841,6.57429126 9.26931818,5.73068182 C8.55359778,5.01540887 7.47753813,4.80158831 6.54272856,5.18888943 C5.60791899,5.57619055 4.99837433,6.48837414 4.99822479,7.50023928 C4.99807531,8.51210442 5.60735038,9.4244681 6.54204545,9.81204545 L6.54204545,9.81204545 Z M4.77409091,4.77409091 C5.74796442,3.80021737 7.16741602,3.41987644 8.497752,3.77633889 C9.82808798,4.13280133 10.8671987,5.17191202 11.2236611,6.502248 C11.5801236,7.83258398 11.1997826,9.25203558 10.2259091,10.2259091 C8.72043106,11.7313871 6.27956895,11.7313871 4.77409095,10.2259091 C3.26861295,8.72043105 3.26861293,6.27956894 4.77409091,4.77409091 L4.77409091,4.77409091 Z M12.21,4.21909091 C12.4515165,3.99126195 12.5500645,3.65013874 12.4672525,3.3286136 C12.3844405,3.00708845 12.1333661,2.756014 11.8118409,2.673202 C11.4903158,2.59039 11.1491926,2.68893807 10.9213636,2.93045455 C10.5829948,3.2891519 10.5911987,3.85189333 10.93988,4.20057459 C11.2885612,4.54925586 11.8513026,4.55745973 12.21,4.21909091 L12.21,4.21909091 Z" id="Shape"></path>
                    </g>
                </g>
            </g>
        </g>
    </g>
</svg>